<svg width="640" height="480" xmlns="http://www.w3.org/2000/svg" xmlns:xlink="http://www.w3.org/1999/xlink">
 <title>spring</title>
 <defs>
  <linearGradient id="linearGradient1812">
   <stop offset="0" stop-color="#404040" id="stop1813"/>
   <stop offset="1" stop-color="#767974" id="stop1814"/>
  </linearGradient>
  <linearGradient xlink:href="#linearGradient1812" y2="0.087494" x2="0.659727" y1="0.087494" x1="0.511245" gradientTransform="scale(0.976314 1.02426)" id="linearGradient2417"/>
  <linearGradient xlink:href="#linearGradient1812" y2="0.189545" x2="0.676183" y1="0.189545" x1="0.478191" gradientTransform="scale(0.976314 1.02426)" id="linearGradient2419"/>
  <linearGradient xlink:href="#linearGradient1812" y2="0.272295" x2="0.696578" y1="0.272295" x1="0.578541" gradientTransform="scale(0.976314 1.02426)" id="linearGradient2421"/>
  <linearGradient xlink:href="#linearGradient1812" y2="0.140917" x2="0.627804" y1="0.140917" x1="0.346036" gradientTransform="scale(0.976314 1.02426)" id="linearGradient2423"/>
 </defs>
 <g>
  <path d="m48.179501,58.625c-2.951202,2.711899 -4.086102,5.572403 -3.740601,8.484901c0.345501,2.912399 2.2038,5.483795 4.921398,7.588997c5.435101,4.210403 14.516602,6.771805 24.2005,6.148605l0.024399,0l0.020302,-0.004402c7.622902,-0.8713 12.040901,-3.241699 14.414604,-5.939705c2.373695,-2.697899 2.684898,-5.709694 1.743393,-7.5979l-0.028397,-0.057793l-0.032501,-0.0578c-2.351196,-3.572403 -7.207199,-4.645405 -11.992599,-5.050503c-4.7854,-0.405102 -9.6539,-0.031101 -12.020996,-0.031101c-2.485302,0 -5.777504,0.209602 -9.199604,1.0662c-3.421997,0.856598 -6.740299,3.101799 -9.390099,5.796501l0.965801,1.542297c1.636597,-1.811996 5.356899,-4.558701 8.520798,-5.3507c3.163902,-0.792 6.676899,-0.920296 9.103104,-0.920296c2.544495,0 7.279396,-0.362003 11.870598,0.026695c4.5569,0.385704 8.819496,1.621407 10.513298,4.116806c0.377098,0.8339 0.426201,2.8946 -1.4589,5.037193c-1.9198,2.182106 -5.862198,4.452301 -13.167,5.295006c-0.006798,0.000397 -0.013596,-0.000504 -0.020302,0c-9.285095,0.592896 -18.053997,-1.971802 -22.940697,-5.757401c-2.445202,-1.894203 -3.865101,-4.039604 -4.112701,-6.126404c-0.247498,-2.0867 0.3265,-4.085999 2.9566,-6.502998l-1.150398,-1.7062z" fill-rule="evenodd" fill="url(#linearGradient2417)" id="path1717"/>
  <path d="m50.6535,46.044701c-2.951199,2.711998 -4.191299,6.0289 -3.845901,8.941399c0.345501,2.912399 2.2038,5.483902 4.921402,7.589001c5.4352,4.2104 14.516598,6.771801 24.200497,6.148602l0.024406,0l0.020294,-0.004402c7.623001,-0.8713 12.041,-3.241699 14.414604,-5.939598c2.373695,-2.698002 2.684898,-5.709801 1.743401,-7.598l-0.028404,-0.0578l-0.032501,-0.0578c-2.351196,-3.572403 -7.207199,-4.645401 -11.992599,-5.050503c-4.7854,-0.405098 -9.6539,-0.031097 -12.020996,-0.031097c-2.485298,0 -5.7775,0.209599 -9.199501,1.0662c-3.4221,0.856598 -6.8106,3.101799 -9.4604,5.7966c0.321899,0.689598 0.608799,1.0984 1.0009,1.542198c1.6366,-1.812 5.391998,-4.558701 8.555901,-5.3507c3.163898,-0.792 6.676899,-0.9203 9.1031,-0.9203c2.544502,0 7.279396,-0.362 11.870697,0.026699c4.556801,0.3857 8.819405,1.621403 10.513306,4.116802c0.376999,0.8339 0.426094,2.8946 -1.459007,5.037197c-1.9198,2.182102 -5.862198,4.452305 -13.167,5.295002c-0.006798,0.000397 -0.013496,-0.000397 -0.020294,0c-9.285103,0.592903 -18.054001,-1.971802 -22.940704,-5.757401c-2.445198,-1.8941 -3.865097,-4.0396 -4.112698,-6.1264c-0.247501,-2.0867 0.3265,-4.612701 2.9566,-7.029701l-1.045101,-1.635998z" fill-rule="evenodd" fill="url(#linearGradient2419)" id="path1715"/>
  <path d="m53.257401,34.120201c-2.951202,2.711998 -4.226501,5.747997 -3.881001,8.6605c0.345501,2.912399 2.2038,5.483799 4.921398,7.589001c5.435101,4.2104 14.516602,6.771797 24.2005,6.148598l0.024399,0l0.020302,-0.004398c7.623001,-0.8713 12.040901,-3.241802 14.414604,-5.939701c2.373695,-2.697899 2.684898,-5.709702 1.743393,-7.5979l-0.028397,-0.0578l-0.032501,-0.0578c-2.351196,-3.572498 -7.207199,-4.645397 -11.992599,-5.050499c-4.7854,-0.405098 -9.6539,-0.031101 -12.020996,-0.031101c-2.485306,0 -5.777504,0.209602 -9.199604,1.0662c-3.421997,0.856602 -6.796299,3.147301 -9.445999,5.842102c0.293701,0.534 0.6577,1.173401 0.986599,1.4967c1.6366,-1.812099 5.392002,-4.558701 8.555901,-5.3507c3.163902,-0.792 6.676903,-0.9203 9.103104,-0.9203c2.544495,0 7.279396,-0.362 11.870598,0.026699c4.5569,0.3857 8.819496,1.621399 10.513298,4.116798c0.377098,0.833801 0.426201,2.894501 -1.4589,5.037201c-1.9198,2.182102 -5.862198,4.452301 -13.167,5.294899c-0.006798,0.0005 -0.013496,-0.000397 -0.020302,0c-9.285095,0.593002 -18.053997,-1.971798 -22.940697,-5.757298c-2.445202,-1.894199 -3.865101,-4.0396 -4.112701,-6.1264c-0.247498,-2.0867 0.5723,-4.331902 3.2024,-6.748802l-1.255798,-1.635998z" fill-rule="evenodd" fill="url(#linearGradient2421)" id="path1700"/>
  <path d="m53.903702,23.512199c-0.798901,0.3587 -3.550201,-1.7911 -2.657204,-0.434c-4.895897,6.306801 4.004501,15.485399 10.101902,19.683401c4.908604,3.057899 10.805798,3.178299 16.283901,2.576298c4.5896,-0.557999 9.224998,-1.615997 13.347397,-3.964397c1.955902,-1.308502 3.844604,-3.5266 3.728699,-6.193802c-0.3498,-2.805 -2.854294,-4.378199 -4.9851,-5.4583c-6.590599,-3.334 -14.150894,-3.0439 -21.197594,-1.753599c-4.500603,0.872601 -9.642605,2.493799 -13.633804,4.944302c0.079201,0.099598 1.121403,1.6637 1.153,1.663998c7.589302,-4.156199 18.129601,-6.369099 26.504105,-5.0399c3.458199,0.6366 6.957695,1.931601 9.628899,4.490301c1.252098,1.4842 0.201302,3.459801 -0.986305,4.5168c-2.185394,2.024601 -5.079498,2.7458 -7.779297,3.543999c-5.963203,1.549202 -12.340897,2.069099 -18.292099,0.1894c-4.544502,-1.6362 -7.9137,-5.698399 -10.548,-9.897198c-1.8158,-2.989302 -3.9445,-4.515402 -0.668499,-8.867302z" fill-rule="evenodd" fill="url(#linearGradient2423)" id="path1699"/>
  <title>Layer 1</title>
  <g display="block" id="layer3"/>
  <g display="block" id="layer4"/>
 </g>
</svg>